<svg width="54" height="54" viewBox="0 0 54 54" fill="none" xmlns="http://www.w3.org/2000/svg">
  <g filter="url(#filter0_d_1013_3030)">
  <path d="M16.927 31.8746C14.8984 31.8746 13.2587 33.4687 13.2587 35.4373C13.2587 37.4075 14.8984 39 16.927 39C18.954 39 20.5952 37.4075 20.5952 35.4373C20.5952 33.4687 18.954 31.8746 16.927 31.8746ZM16.927 36.8016C16.1571 36.8016 15.5222 36.185 15.5222 35.4373C15.5222 34.6896 16.1571 34.073 16.927 34.073C17.6968 34.073 18.3317 34.6896 18.3317 35.4373C18.3317 36.185 17.6968 36.8016 16.927 36.8016ZM40.0222 31.722C37.9952 31.722 36.354 33.316 36.354 35.2862C36.354 37.2549 37.9952 38.8489 40.0222 38.8489C42.0508 38.8489 43.6921 37.2549 43.6921 35.2862C43.6921 33.316 42.0508 31.722 40.0222 31.722ZM40.0222 36.6506C39.2524 36.6506 38.6175 36.0339 38.6175 35.2862C38.6175 34.537 39.2524 33.9203 40.0222 33.9203C40.7937 33.9203 41.4286 34.537 41.4286 35.2862C41.4286 36.0339 40.7937 36.6506 40.0222 36.6506ZM8 15C7.44772 15 7 15.4477 7 16V33.4132C7 34.1038 7.55873 34.7328 8.26984 34.7328H11.7619C11.9079 34.7328 12.0524 34.554 12.0794 34.4245C12.4794 32.1953 14.5127 30.6567 16.927 30.6567C19.3413 30.6567 21.3429 32.2014 21.7429 34.4306C21.7698 34.5725 21.9333 34.7328 22.0794 34.7328H27.3175V16C27.3175 15.4477 26.8697 15 26.3175 15H8ZM15.6952 20.9538C15.6952 21.3823 15.3365 21.7292 14.8952 21.7292V27.9358C14.8952 28.221 14.6571 28.4538 14.3635 28.4538C14.0698 28.4538 13.8302 28.221 13.8302 27.9358V21.7292C13.3889 21.7292 13.0317 21.3823 13.0317 20.9538V17.8489H13.4317V20.1768H14.1635V17.8489H14.5635V20.1768H15.2952V17.8489H15.6952V20.9538ZM20.5508 27.9358C20.5508 28.0791 20.4905 28.2086 20.3937 28.3011C20.2984 28.3952 20.1651 28.4538 20.0175 28.4538C19.7238 28.4538 19.4857 28.221 19.4857 27.9358V23.798H18.9524V18.6259C18.9524 18.1973 19.3095 17.8489 19.7508 17.8489C20.1921 17.8489 20.5508 18.1973 20.5508 18.6259V27.9358ZM46.6825 32.112H45.8889V28.7205C45.8889 27.5796 45.0127 26.7163 43.8254 26.7163H40.0159C39.9365 26.7163 39.8413 26.6747 39.7873 26.6223L33.8508 21.0108C33.5841 20.7518 33.2603 20.5622 32.873 20.5498H28.5873V34.7328H34.9365C35.0825 34.7328 35.227 34.554 35.254 34.4245C35.654 32.1953 37.6079 30.5041 40.0222 30.5041C42.4381 30.5041 44.4381 32.2014 44.8381 34.4306C44.8651 34.5725 45.1079 34.7328 45.254 34.7328H45.5714C46.3317 34.7328 47 34.0683 47 33.3422V32.3834C47 32.24 46.8429 32.112 46.6825 32.112ZM37 26.7163H30.4921C30.3317 26.7163 30.1746 26.5637 30.1746 26.408V22.4275C30.1746 22.2718 30.3317 22.0915 30.4921 22.0915H32.5556C32.6349 22.0915 32.7968 22.1763 32.8635 22.2287L37.1587 26.2539C37.319 26.4481 37.254 26.7163 37 26.7163Z" fill="#333333"/>
  </g>
</svg>
