<svg width="54" height="54" viewBox="0 0 54 54" fill="none" xmlns="http://www.w3.org/2000/svg">
<g id="Icons=Experience" filter="url(#filter0_d_822_2222)">
<g id="Vector">
<path d="M15 41.4644L19.4627 39.5051L21.408 44L25.9851 31.8983C23.5821 31.7831 21.2935 30.9763 19.5771 29.5932L15 41.4644Z" fill="#333333"/>
<path d="M33.4229 29.5932C31.592 30.9763 29.4179 31.7831 27.0149 31.8983L31.592 44L33.5373 39.5051L38 41.4644L33.4229 29.5932Z" fill="#333333"/>
<path d="M36.7413 20.3729C36.7413 14.6102 32.1642 10 26.4428 10C20.7214 10 16.1443 14.6102 16.1443 20.3729C16.1443 26.1356 20.7214 30.7458 26.4428 30.7458C32.1642 30.7458 36.7413 26.1356 36.7413 20.3729ZM30.4478 26.1356L26.4427 23.4848L22.4378 26.1356L24.1542 21.5254L20.7214 19.2203H24.7264L26.4429 14.6102L28.1593 19.2203H32.1643L28.7315 21.5254L30.4478 26.1356Z" fill="#333333"/>
</g>
</g>
</svg>
