<svg width="70" height="70" viewBox="0 0 70 70" fill="none" xmlns="http://www.w3.org/2000/svg">
<g id="Logo_Pitlane">
<g id="Fork&#38;Knife">
<path id="Fork" d="M12 7.40001C12 6.07452 13.0745 5 14.4 5C15.7255 5 16.8 6.07452 16.8 7.4V18.0863C16.8 19.0804 17.6059 19.8863 18.6 19.8863C19.5941 19.8863 20.4 19.0804 20.4 18.0863V7.4C20.4 6.07452 21.4745 5 22.8 5C24.1255 5 25.2 6.07452 25.2 7.4V18.0863C25.2 19.0804 26.0059 19.8863 27 19.8863C27.9941 19.8863 28.8 19.0804 28.8 18.0863V7.4C28.8 6.07452 29.8745 5 31.2 5C32.5255 5 33.6 6.07452 33.6 7.4V26.4982C33.6 26.862 33.5302 27.2224 33.3942 27.5599C32.7768 29.0929 31.4049 30.1933 29.7743 30.4632L28.8 30.6245V60.4C28.8 62.0569 27.4569 63.4 25.8 63.4H19.8C18.1431 63.4 16.8 62.0569 16.8 60.4V30.6245L15.8257 30.4632C14.1951 30.1933 12.8232 29.0929 12.2058 27.5599C12.0698 27.2224 12 26.862 12 26.4982V7.40001Z" fill="#ECA139"/>
<path id="Knife" d="M37.6001 13C37.6001 8.58172 41.1818 5 45.6001 5H57.4001C57.9524 5 58.4001 5.44772 58.4001 6V60.4C58.4001 62.0569 57.057 63.4 55.4001 63.4H49.8445C48.1877 63.4 46.8445 62.0569 46.8445 60.4V44.9333C46.8445 44.381 46.3968 43.9333 45.8445 43.9333H38.6001C38.0478 43.9333 37.6001 43.4856 37.6001 42.9333V13Z" fill="#ECA139"/>
</g>
</g>
</svg>
