<svg width="54" height="54" viewBox="0 0 54 54" fill="none" xmlns="http://www.w3.org/2000/svg">
<g id="Icons=Price" filter="url(#filter0_d_822_2225)">
<g id="Vector">
<path d="M22.8184 27.1611C22.6341 26.9769 22.3919 26.8844 22.1497 26.8844C21.9075 26.8844 21.6653 26.9769 21.4805 27.1611C21.3024 27.3398 21.2038 27.5777 21.2038 27.8309C21.2038 28.0836 21.3018 28.3209 21.4805 28.499C21.6592 28.6783 21.8965 28.7763 22.1492 28.7763C22.4025 28.7763 22.6403 28.6777 22.819 28.4996C23.1876 28.1305 23.1876 27.5302 22.8184 27.1611Z" fill="#333333"/>
<path d="M19.7575 18.865C19.6361 18.7436 19.4814 18.6796 19.3107 18.6796C19.1394 18.6796 18.9854 18.7431 18.8651 18.8638C18.7431 18.9853 18.6797 19.1393 18.6797 19.3106C18.6797 19.4813 18.7438 19.636 18.8646 19.7568C19.1055 19.9995 19.5153 19.9989 19.7569 19.7568C19.8776 19.636 19.9418 19.4813 19.9418 19.3106C19.9418 19.1393 19.8783 18.9853 19.7575 18.865Z" fill="#333333"/>
<path d="M41.168 25.1047L29.8956 13.8322C29.3594 13.2955 28.6464 13.0002 27.8878 13.0002H15.8398C14.274 13.0002 13 14.2741 13 15.84V27.8879C13 28.6465 13.2953 29.3595 13.8321 29.8956L25.1046 41.1681C25.6408 41.7049 26.3544 42.0001 27.1124 42.0001C27.8709 42.0001 28.5846 41.7043 29.1201 41.1681L41.168 29.1208C41.7042 28.5847 42 27.8711 42 27.1125C42 26.3545 41.7048 25.6409 41.168 25.1047ZM17.5253 21.0948C17.0489 20.6184 16.7864 19.9849 16.7864 19.3107C16.7864 18.636 17.0496 18.0018 17.5266 17.5254C18.0017 17.0497 18.6359 16.7866 19.3107 16.7866C19.9849 16.7866 20.6184 17.0491 21.0954 17.5261C21.5718 18.0018 21.8349 18.6359 21.8349 19.3107C21.8349 19.9849 21.5724 20.6185 21.0954 21.0954C20.6183 21.5724 19.9848 21.8349 19.3107 21.8349C18.6359 21.8349 18.0017 21.5718 17.5253 21.0948ZM24.1575 29.8384C23.6214 30.3745 22.9084 30.6697 22.1498 30.6697C21.3906 30.6697 20.6775 30.3745 20.1414 29.8384C19.6059 29.3028 19.3107 28.5905 19.3107 27.8312C19.3107 27.0719 19.6059 26.3589 20.1421 25.8228C21.2489 24.716 23.0508 24.716 24.1576 25.8228C25.2643 26.9303 25.2643 28.7316 24.1575 29.8384ZM28.7763 33.5094C28.7763 34.032 28.3523 34.456 27.8297 34.456C27.3071 34.456 26.8831 34.032 26.8831 33.5094V22.1505C26.8831 21.6279 27.3071 21.2039 27.8297 21.2039C28.3523 21.2039 28.7763 21.6279 28.7763 22.1505V33.5094ZM35.5165 29.8384C34.9803 30.3745 34.2673 30.6697 33.5087 30.6697C32.7495 30.6697 32.0365 30.3745 31.5004 29.8384C30.9648 29.3028 30.6697 28.5905 30.6697 27.8312C30.6697 27.0719 30.9648 26.3589 31.501 25.8228C32.6078 24.716 34.4098 24.716 35.5165 25.8228C36.6233 26.9303 36.6233 28.7316 35.5165 29.8384Z" fill="#333333"/>
<path d="M34.1773 27.1611C33.9931 26.9769 33.7509 26.8844 33.5087 26.8844C33.2665 26.8844 33.0243 26.9769 32.8395 27.1611C32.6614 27.3398 32.5628 27.5777 32.5628 27.8309C32.5628 28.0836 32.6608 28.3209 32.8395 28.499C33.0182 28.6783 33.2554 28.7763 33.5081 28.7763C33.7614 28.7763 33.9992 28.6777 34.1779 28.4996C34.5465 28.1305 34.5465 27.5302 34.1773 27.1611Z" fill="#333333"/>
</g>
</g>
</svg>
