<svg width="54" height="54" viewBox="0 0 54 54" fill="none" xmlns="http://www.w3.org/2000/svg">
<g id="Icons=Production">
<g id="Vector">
<path d="M18.2054 22.9814H26.1658C26.6661 22.9814 27.0712 22.5784 27.0712 22.0805C27.0712 21.5821 26.6661 21.1792 26.1658 21.1792H18.2054C17.7052 21.1792 17.2997 21.5821 17.2997 22.0805C17.2996 22.5783 17.7051 22.9814 18.2054 22.9814Z" fill="#333333"/>
<path fill-rule="evenodd" clip-rule="evenodd" d="M41.0933 39.1965H39.9103V23.9963C39.9103 23.4985 39.5039 23.0948 39.0043 23.0948H37.0448V13.9015C37.0448 13.4036 36.639 13 36.1395 13H33.6502C33.1506 13 32.7448 13.4036 32.7448 13.9015V23.0948H31.9485V13.9015C31.9485 13.4036 31.5421 13 31.0425 13H28.5539C28.0544 13 27.649 13.4036 27.649 13.9015V23.0948H14.9957C14.4955 23.0948 14.0894 23.4985 14.0894 23.9963V39.1965H12.9057C12.405 39.1965 12 39.5997 12 40.0988C12 40.5967 12.4049 41 12.9057 41H41.0946C41.5942 41 42 40.5967 42 40.0988C41.9993 39.5991 41.5942 39.1965 41.0933 39.1965ZM19.1102 39.1965V32.5661H25.2588V39.1965H19.1102ZM31.5327 30.7642H29.118C28.6185 30.7642 28.2126 31.1675 28.2126 31.6652C28.2126 32.1637 28.6185 32.5664 29.118 32.5664H31.5327C32.0323 32.5664 32.4387 32.1637 32.4387 31.6652C32.4387 31.167 32.0323 30.7642 31.5327 30.7642ZM33.6513 30.7642H36.1405C36.64 30.7642 37.0447 31.167 37.0447 31.6652C37.0447 32.1637 36.64 32.5664 36.1405 32.5664H33.6513C33.1517 32.5664 32.7458 32.1637 32.7458 31.6652C32.7458 31.1675 33.1517 30.7642 33.6513 30.7642Z" fill="#333333"/>
</g>
</g>
</svg>
