<svg width="70" height="70" viewBox="0 0 70 70" fill="none" xmlns="http://www.w3.org/2000/svg">
<g id="Icon_large" clip-path="url(#clip0_1107_3194)">
<path id="Vector" d="M1.9699 27.624C1.70833 27.6242 1.44941 27.6764 1.20821 27.7776C0.967016 27.8788 0.748369 28.027 0.565009 28.2135C0.38165 28.4 0.237244 28.6212 0.140205 28.8641C0.0431649 29.107 -0.00456864 29.3668 -0.000215179 29.6283C0.115996 36.94 0.792754 41.985 1.50369 45.9771C2.85994 53.1426 9.4867 59.768 16.6508 61.1242C21.0053 61.8953 26.9238 61.9746 35.0039 61.9842C43.084 61.9937 49.0025 61.8953 53.357 61.1242C60.5211 59.768 67.1478 53.1412 68.5041 45.9771C69.2109 41.985 69.8877 36.94 70.008 29.6283C70.0123 29.3668 69.9646 29.107 69.8676 28.8641C69.7705 28.6212 69.6261 28.4 69.4428 28.2135C69.2594 28.027 69.0408 27.8788 68.7996 27.7776C68.5584 27.6764 68.2994 27.6242 68.0379 27.624H1.9699Z" fill="#333333"/>
<path id="Vector_2" d="M55.5844 64.8512H14.4143C12.9924 64.8512 11.8398 66.0038 11.8398 67.4256C11.8398 68.8474 12.9924 70 14.4143 70H55.5844C57.0062 70 58.1588 68.8474 58.1588 67.4256C58.1588 66.0038 57.0062 64.8512 55.5844 64.8512Z" fill="#333333"/>
<path id="Vector_3" d="M34.9561 20.4642C34.571 20.4641 34.1944 20.3499 33.8741 20.1359C33.5539 19.9219 33.3042 19.6178 33.1567 19.2619C33.0092 18.9061 32.9705 18.5145 33.0455 18.1367C33.1205 17.7589 33.3058 17.4118 33.578 17.1392C34.2992 16.4175 34.7097 15.4425 34.722 14.4223C34.7343 13.4021 34.3473 12.4175 33.6436 11.6787L33.5753 11.6117C32.1141 10.1501 31.2921 8.16871 31.2896 6.102C31.287 4.03528 32.1041 2.05189 33.5616 0.586672C33.9157 0.227355 34.3953 0.0193765 34.8996 0.00649533C35.4039 -0.00638582 35.8935 0.176834 36.2654 0.517607C36.6374 0.858379 36.8627 1.33014 36.8939 1.83362C36.9251 2.3371 36.7597 2.83306 36.4327 3.21714L36.3302 3.32788C35.608 4.04907 35.1968 5.02426 35.1846 6.04478C35.1723 7.0653 35.5599 8.05009 36.2645 8.78843L36.3315 8.85542C37.7931 10.3204 38.6139 12.3054 38.6139 14.3748C38.6139 16.4442 37.7931 18.4291 36.3315 19.8941C36.1512 20.0751 35.9368 20.2186 35.7008 20.3164C35.4647 20.4143 35.2117 20.4645 34.9561 20.4642Z" fill="#333333"/>
<path id="Vector_4" d="M19.7502 24.6504C19.3656 24.6497 18.9897 24.5353 18.67 24.3214C18.3503 24.1076 18.1011 23.8039 17.9537 23.4486C17.8063 23.0933 17.7674 22.7024 17.8419 22.325C17.9163 21.9476 18.1008 21.6008 18.3721 21.3281C19.0942 20.6069 19.5054 19.6317 19.5177 18.6112C19.5299 17.5907 19.1423 16.6059 18.4377 15.8675L18.3707 15.7992C16.9095 14.3376 16.0875 12.3562 16.085 10.2895C16.0824 8.22279 16.8995 6.23939 18.357 4.77418C18.7127 4.42128 19.1907 4.21889 19.6916 4.209C20.1926 4.19911 20.6782 4.38248 21.0475 4.72107C21.4169 5.05965 21.6417 5.52745 21.6753 6.02739C21.709 6.52732 21.5488 7.02102 21.2281 7.40602L21.1256 7.51676C20.4046 8.23739 19.9936 9.2112 19.9803 10.2305C19.967 11.2498 20.3525 12.234 21.0545 12.9732L21.1228 13.0402C22.5844 14.5052 23.4052 16.4901 23.4052 18.5595C23.4052 20.6289 22.5844 22.6138 21.1228 24.0789C20.7589 24.4435 20.2653 24.649 19.7502 24.6504Z" fill="#333333"/>
<path id="Vector_5" d="M49.2052 24.6504C48.8205 24.6497 48.4447 24.5353 48.125 24.3214C47.8053 24.1076 47.5561 23.8039 47.4087 23.4486C47.2613 23.0933 47.2224 22.7024 47.2968 22.325C47.3713 21.9476 47.5558 21.6008 47.827 21.3281C48.5482 20.6064 48.9588 19.6314 48.971 18.6112C48.9833 17.591 48.5963 16.6064 47.8927 15.8675L47.8243 15.7992C46.3631 14.3376 45.5411 12.3562 45.5386 10.2895C45.536 8.22279 46.3531 6.23939 47.8106 4.77418C48.1664 4.42128 48.6443 4.21889 49.1453 4.209C49.6462 4.19911 50.1318 4.38248 50.5011 4.72107C50.8705 5.05965 51.0953 5.52745 51.129 6.02739C51.1626 6.52732 51.0024 7.02102 50.6817 7.40602L50.586 7.51949C49.8648 8.2412 49.4543 9.21621 49.442 10.2364C49.4298 11.2566 49.8168 12.2412 50.5204 12.98L50.5874 13.047C52.0489 14.5121 52.8697 16.497 52.8697 18.5664C52.8697 20.6358 52.0489 22.6207 50.5874 24.0857C50.4056 24.2663 50.1899 24.4091 49.9527 24.506C49.7154 24.6029 49.4614 24.652 49.2052 24.6504Z" fill="#333333"/>
</g>
<defs>
<clipPath id="clip0_1107_3194">
<rect width="70" height="70" fill="white"/>
</clipPath>
</defs>
</svg>
